<svg width="34" height="34" viewBox="0 0 34 34" fill="none" xmlns="http://www.w3.org/2000/svg">
<path fill-rule="evenodd" clip-rule="evenodd" d="M3.177 21.2521V30.1167C3.177 30.6859 3.639 31.1479 4.20825 31.1479H6.4275C6.67172 31.148 6.90803 31.0614 7.09436 30.9035C7.28069 30.7456 7.40494 30.5267 7.445 30.2858L7.9895 27.0229H25.8645L26.4076 30.2858C26.4477 30.5267 26.5719 30.7456 26.7583 30.9035C26.9446 31.0614 27.1809 31.148 27.4251 31.1479H29.6457C29.9193 31.1479 30.1816 31.0393 30.375 30.8459C30.5683 30.6525 30.677 30.3902 30.677 30.1167V21.2521C30.6771 19.6357 30.1986 18.0554 29.302 16.7104L28.2295 15.1017C28.1338 14.9585 28.0519 14.8066 27.9847 14.6479H29.3515C29.5431 14.6479 29.7309 14.5945 29.8939 14.4938C30.0569 14.393 30.1885 14.2488 30.2741 14.0773L30.6179 13.3898C30.6963 13.2327 30.7333 13.0582 30.7254 12.8827C30.7175 12.7073 30.6649 12.5368 30.5727 12.3874C30.4804 12.238 30.3515 12.1146 30.1982 12.0289C30.0449 11.9433 29.8722 11.8982 29.6966 11.8979H27.377L26.9507 9.7722C26.8211 9.12479 26.5077 8.52842 26.048 8.0544C25.5884 7.58038 25.002 7.24877 24.3589 7.0992C22.3486 6.6317 19.8709 6.39795 16.927 6.39795C13.9817 6.39795 11.5054 6.6317 9.49512 7.0992C8.85176 7.24853 8.26504 7.58005 7.80515 8.05408C7.34525 8.52812 7.03166 9.12461 6.90187 9.7722L6.47562 11.8979H4.15875C3.98314 11.8982 3.8105 11.9433 3.65719 12.0289C3.50388 12.1146 3.37499 12.238 3.28272 12.3874C3.19045 12.5368 3.13787 12.7073 3.12995 12.8827C3.12204 13.0582 3.15906 13.2327 3.2375 13.3898L3.58125 14.0773C3.66673 14.2486 3.79818 14.3926 3.96088 14.4934C4.12358 14.5942 4.31111 14.6477 4.5025 14.6479H5.87062C5.80343 14.8065 5.72149 14.9585 5.62587 15.1017L4.552 16.7104C3.6555 18.0552 3.177 19.6351 3.177 21.2521ZM25.1234 14.6534C25.2181 15.129 25.3753 15.59 25.5909 16.0243H8.26312C8.479 15.5912 8.63575 15.1306 8.73062 14.6534L9.59962 10.3126C9.62527 10.1828 9.68782 10.0632 9.77977 9.96805C9.87172 9.87293 9.98916 9.80636 10.118 9.77632C11.9027 9.36382 14.177 9.14795 16.927 9.14795C19.677 9.14795 21.9512 9.36245 23.736 9.7777C23.8649 9.8074 23.9825 9.87366 24.0747 9.96853C24.1669 10.0634 24.2298 10.1829 24.2557 10.3126L25.1234 14.6534ZM7.9895 22.8979C8.53651 22.8979 9.06111 22.6807 9.4479 22.2939C9.8347 21.9071 10.052 21.3825 10.052 20.8354C10.052 20.2884 9.8347 19.7638 9.4479 19.377C9.06111 18.9902 8.53651 18.7729 7.9895 18.7729C7.44249 18.7729 6.91788 18.9902 6.53109 19.377C6.1443 19.7638 5.927 20.2884 5.927 20.8354C5.927 21.3825 6.1443 21.9071 6.53109 22.2939C6.91788 22.6807 7.44249 22.8979 7.9895 22.8979ZM27.927 20.8354C27.927 21.3825 27.7097 21.9071 27.3229 22.2939C26.9361 22.6807 26.4115 22.8979 25.8645 22.8979C25.3175 22.8979 24.7929 22.6807 24.4061 22.2939C24.0193 21.9071 23.802 21.3825 23.802 20.8354C23.802 20.2884 24.0193 19.7638 24.4061 19.377C24.7929 18.9902 25.3175 18.7729 25.8645 18.7729C26.4115 18.7729 26.9361 18.9902 27.3229 19.377C27.7097 19.7638 27.927 20.2884 27.927 20.8354Z" fill="black"/>
</svg>
