<svg width="35" height="34" viewBox="0 0 35 34" fill="none" xmlns="http://www.w3.org/2000/svg">
<g clip-path="url(#clip0_149_430)">
<path d="M33.8738 12.9899H31.608C31.3622 12.9899 31.1496 13.1382 31.0698 13.3639L29.4951 17.9427H27.9536L26.4187 15.4599C26.3191 15.2922 26.133 15.1955 25.9337 15.1955H23.6679V13.5445C23.6679 13.2414 23.4155 12.9963 23.1032 12.9963H19.1365V10.7972H20.8374C21.1497 10.7972 21.4022 10.5522 21.4022 10.2491V6.94074C21.4022 6.63764 21.1497 6.39258 20.8374 6.39258H10.625C10.3127 6.39258 10.0602 6.63764 10.0602 6.94074V10.2426C10.0602 10.5457 10.3127 10.7908 10.625 10.7908H12.3259V12.9899H7.78779C7.63497 12.9899 7.49544 13.0479 7.38913 13.1511C7.28282 13.2543 7.22302 13.3962 7.22302 13.5381V15.189H3.2563C2.94401 15.189 2.69153 15.4341 2.69153 15.7372V19.039H1.55533V17.3946C1.55533 17.0915 1.30284 16.8464 0.990556 16.8464C0.678269 16.8464 0.425781 17.0915 0.425781 17.3946V21.7992C0.425781 22.1023 0.678269 22.3474 0.990556 22.3474C1.30284 22.3474 1.55533 22.1023 1.55533 21.7992V20.1483H2.69153V24.5529C2.69153 24.856 2.94401 25.1011 3.2563 25.1011H7.48879L9.58843 28.1579C9.69474 28.3127 9.87414 28.403 10.0602 28.403H25.9337C26.1463 28.403 26.3456 28.2869 26.4387 28.0999L27.9802 25.1011H29.5482L31.0898 28.0999C31.1894 28.2869 31.3821 28.403 31.5947 28.403H33.8605C34.1728 28.403 34.4253 28.1579 34.4253 27.8548V13.5445C34.4385 13.235 34.1861 12.9899 33.8738 12.9899ZM7.22302 23.9983H3.82108V16.2918H7.22302V23.9983ZM17.9936 12.9899H13.4555V10.7908H17.9936V12.9899ZM29.3356 23.9983H28.1994V19.0455H29.3356V23.9983Z" fill="black"/>
</g>
<defs>
<clipPath id="clip0_149_430">
<rect width="34" height="33" fill="white" transform="translate(0.425781 0.897949)"/>
</clipPath>
</defs>
</svg>
