<svg width="111" height="15" viewBox="0 0 111 15" fill="none" xmlns="http://www.w3.org/2000/svg">
<path d="M9.29759 5.04474C9.17401 4.65696 9.00781 4.30966 8.79901 4.00284C8.59446 3.69176 8.34943 3.42756 8.06392 3.21023C7.77841 2.98864 7.45241 2.82031 7.08594 2.70526C6.72372 2.5902 6.32528 2.53267 5.89062 2.53267C5.15341 2.53267 4.48864 2.7223 3.89631 3.10156C3.30398 3.48082 2.83523 4.03693 2.49006 4.76989C2.14915 5.49858 1.97869 6.39133 1.97869 7.44815C1.97869 8.50923 2.15128 9.40625 2.49645 10.1392C2.84162 10.8722 3.31463 11.4283 3.91548 11.8075C4.51634 12.1868 5.20028 12.3764 5.96733 12.3764C6.67898 12.3764 7.29901 12.2315 7.82741 11.9418C8.36009 11.652 8.77131 11.2429 9.06108 10.7145C9.35511 10.1818 9.50213 9.5554 9.50213 8.83523L10.0135 8.93111H6.26776V7.30114H11.4134V8.79048C11.4134 9.88991 11.179 10.8445 10.7102 11.6541C10.2457 12.4595 9.60227 13.0817 8.77983 13.5206C7.96165 13.9595 7.02415 14.179 5.96733 14.179C4.78267 14.179 3.7429 13.9062 2.84801 13.3608C1.95739 12.8153 1.26278 12.0419 0.764205 11.0405C0.265625 10.0348 0.0163353 8.84162 0.0163353 7.46094C0.0163353 6.4169 0.161222 5.4794 0.450994 4.64844C0.740767 3.81747 1.14773 3.11222 1.67188 2.53267C2.20028 1.94886 2.82031 1.50355 3.53196 1.19673C4.24787 0.885653 5.02983 0.730113 5.87784 0.730113C6.58523 0.730113 7.24361 0.834517 7.85298 1.04332C8.46662 1.25213 9.01207 1.54829 9.48935 1.93182C9.97088 2.31534 10.3693 2.77131 10.6847 3.29972C11 3.82386 11.2131 4.40554 11.3239 5.04474H9.29759ZM13.9206 0.909091H16.3176L20.4853 11.0852H20.6387L24.8063 0.909091H27.2033V14H25.324V4.52699H25.2026L21.3418 13.9808H19.7821L15.9213 4.5206H15.7999V14H13.9206V0.909091ZM34.8386 0.909091H37.2356L41.4032 11.0852H41.5566L45.7243 0.909091H48.1213V14H46.242V4.52699H46.1206L42.2598 13.9808H40.7001L36.8393 4.5206H36.7179V14H34.8386V0.909091ZM62.3643 7.45455C62.3643 8.85227 62.1087 10.054 61.5973 11.0597C61.0859 12.0611 60.3849 12.8324 59.4943 13.3736C58.608 13.9105 57.6001 14.179 56.4709 14.179C55.3374 14.179 54.3253 13.9105 53.4347 13.3736C52.5483 12.8324 51.8494 12.0589 51.3381 11.0533C50.8267 10.0476 50.571 8.84801 50.571 7.45455C50.571 6.05682 50.8267 4.85724 51.3381 3.85582C51.8494 2.85014 52.5483 2.07883 53.4347 1.5419C54.3253 1.00071 55.3374 0.730113 56.4709 0.730113C57.6001 0.730113 58.608 1.00071 59.4943 1.5419C60.3849 2.07883 61.0859 2.85014 61.5973 3.85582C62.1087 4.85724 62.3643 6.05682 62.3643 7.45455ZM60.4084 7.45455C60.4084 6.3892 60.2358 5.49219 59.8906 4.76349C59.5497 4.03054 59.081 3.47656 58.4844 3.10156C57.892 2.7223 57.2209 2.53267 56.4709 2.53267C55.7166 2.53267 55.0433 2.7223 54.451 3.10156C53.8587 3.47656 53.3899 4.03054 53.0447 4.76349C52.7038 5.49219 52.5334 6.3892 52.5334 7.45455C52.5334 8.51989 52.7038 9.41903 53.0447 10.152C53.3899 10.8807 53.8587 11.4347 54.451 11.8139C55.0433 12.1889 55.7166 12.3764 56.4709 12.3764C57.2209 12.3764 57.892 12.1889 58.4844 11.8139C59.081 11.4347 59.5497 10.8807 59.8906 10.152C60.2358 9.41903 60.4084 8.51989 60.4084 7.45455ZM63.6188 2.60938V0.909091H73.7502V2.60938H69.6657V14H67.6969V2.60938H63.6188ZM86.7979 7.45455C86.7979 8.85227 86.5423 10.054 86.0309 11.0597C85.5195 12.0611 84.8185 12.8324 83.9279 13.3736C83.0415 13.9105 82.0337 14.179 80.9045 14.179C79.771 14.179 78.7589 13.9105 77.8683 13.3736C76.9819 12.8324 76.283 12.0589 75.7717 11.0533C75.2603 10.0476 75.0046 8.84801 75.0046 7.45455C75.0046 6.05682 75.2603 4.85724 75.7717 3.85582C76.283 2.85014 76.9819 2.07883 77.8683 1.5419C78.7589 1.00071 79.771 0.730113 80.9045 0.730113C82.0337 0.730113 83.0415 1.00071 83.9279 1.5419C84.8185 2.07883 85.5195 2.85014 86.0309 3.85582C86.5423 4.85724 86.7979 6.05682 86.7979 7.45455ZM84.842 7.45455C84.842 6.3892 84.6694 5.49219 84.3242 4.76349C83.9833 4.03054 83.5146 3.47656 82.918 3.10156C82.3256 2.7223 81.6545 2.53267 80.9045 2.53267C80.1502 2.53267 79.4769 2.7223 78.8846 3.10156C78.2923 3.47656 77.8235 4.03054 77.4783 4.76349C77.1374 5.49219 76.967 6.3892 76.967 7.45455C76.967 8.51989 77.1374 9.41903 77.4783 10.152C77.8235 10.8807 78.2923 11.4347 78.8846 11.8139C79.4769 12.1889 80.1502 12.3764 80.9045 12.3764C81.6545 12.3764 82.3256 12.1889 82.918 11.8139C83.5146 11.4347 83.9833 10.8807 84.3242 10.152C84.6694 9.41903 84.842 8.51989 84.842 7.45455ZM89.2605 14V0.909091H93.9267C94.9409 0.909091 95.7825 1.08381 96.4515 1.43324C97.1248 1.78267 97.6277 2.26633 97.9601 2.88423C98.2924 3.49787 98.4586 4.20739 98.4586 5.01278C98.4586 5.81392 98.2903 6.51918 97.9537 7.12855C97.6213 7.73366 97.1184 8.20455 96.4451 8.54119C95.7761 8.87784 94.9345 9.04616 93.9203 9.04616H90.3855V7.34588H93.7413C94.3805 7.34588 94.9004 7.25426 95.301 7.07102C95.7058 6.88778 96.002 6.62145 96.1895 6.27202C96.377 5.92258 96.4707 5.50284 96.4707 5.01278C96.4707 4.51847 96.3748 4.0902 96.1831 3.72798C95.9956 3.36577 95.6994 3.08878 95.2946 2.89702C94.894 2.70099 94.3677 2.60298 93.7157 2.60298H91.2356V14H89.2605ZM95.7228 8.09375L98.9572 14H96.7072L93.5368 8.09375H95.7228ZM108.002 4.34801C107.934 3.7429 107.653 3.27415 107.158 2.94176C106.664 2.60511 106.042 2.43679 105.292 2.43679C104.755 2.43679 104.29 2.52202 103.898 2.69247C103.506 2.85866 103.202 3.08878 102.984 3.38281C102.771 3.67258 102.665 4.00284 102.665 4.37358C102.665 4.68466 102.737 4.95312 102.882 5.17898C103.031 5.40483 103.225 5.59446 103.464 5.74787C103.706 5.89702 103.966 6.02273 104.243 6.125C104.52 6.22301 104.787 6.30398 105.042 6.3679L106.321 6.70028C106.738 6.80256 107.167 6.94105 107.606 7.11577C108.045 7.29048 108.452 7.5206 108.827 7.80611C109.202 8.09162 109.504 8.44531 109.734 8.86719C109.969 9.28906 110.086 9.79403 110.086 10.3821C110.086 11.1236 109.894 11.782 109.51 12.3572C109.131 12.9325 108.579 13.3864 107.855 13.7188C107.135 14.0511 106.263 14.2173 105.241 14.2173C104.26 14.2173 103.412 14.0618 102.697 13.7507C101.981 13.4396 101.42 12.9986 101.015 12.4276C100.611 11.8523 100.387 11.1705 100.344 10.3821H102.326C102.364 10.8551 102.518 11.2493 102.786 11.5646C103.059 11.8757 103.406 12.108 103.828 12.2614C104.254 12.4105 104.721 12.4851 105.228 12.4851C105.786 12.4851 106.282 12.3977 106.717 12.223C107.156 12.044 107.501 11.7969 107.753 11.4815C108.004 11.1619 108.13 10.7891 108.13 10.3629C108.13 9.97514 108.019 9.65767 107.797 9.41051C107.58 9.16335 107.284 8.95881 106.909 8.79688C106.538 8.63494 106.118 8.49219 105.65 8.36861L104.103 7.94673C103.055 7.66122 102.224 7.24148 101.61 6.6875C101.001 6.13352 100.696 5.40057 100.696 4.48864C100.696 3.73437 100.9 3.07599 101.309 2.51349C101.719 1.95099 102.273 1.5142 102.971 1.20312C103.67 0.887784 104.459 0.730113 105.336 0.730113C106.223 0.730113 107.005 0.885653 107.682 1.19673C108.364 1.50781 108.901 1.93608 109.293 2.48153C109.685 3.02273 109.89 3.64489 109.907 4.34801H108.002Z" fill="white"/>
</svg>
