<svg width="34" height="34" viewBox="0 0 34 34" fill="none" xmlns="http://www.w3.org/2000/svg">
<path d="M12.9609 9.99181V8.38867C10.9413 9.35251 9.30759 10.9863 8.34375 13.0058H9.94689C11.6085 13.0058 12.9609 11.6534 12.9609 9.99181Z" fill="black"/>
<path d="M9.94689 21.3628H8.34375C9.30759 23.3823 10.9413 25.0161 12.9609 25.9799V24.3768C12.9609 22.7152 11.6085 21.3628 9.94689 21.3628Z" fill="black"/>
<path d="M24.3304 13.0058H25.9335C24.9697 10.9863 23.3359 9.35251 21.3164 8.38867V9.99181C21.3164 11.6534 22.6688 13.0058 24.3304 13.0058Z" fill="black"/>
<path d="M26.7784 15.7915H24.3327C21.1348 15.7915 18.5331 13.1897 18.5331 9.99183V7.54609C18.5163 7.54328 18.4996 7.54054 18.4829 7.53773C17.5762 7.40539 16.7043 7.40539 15.7976 7.53773C15.7809 7.54054 15.7642 7.54328 15.7474 7.54609V9.99183C15.7474 13.1897 13.1457 15.7915 9.94781 15.7915H7.50207C7.49926 15.8082 7.49652 15.8249 7.49371 15.8416C7.42823 16.2957 7.39062 16.7441 7.39062 17.1842C7.39062 17.6243 7.42823 18.0729 7.49371 18.5269C7.49652 18.5436 7.49926 18.5603 7.50207 18.577H9.94781C13.1457 18.577 15.7474 21.1788 15.7474 24.3766V26.8224C15.7642 26.8252 15.7809 26.8279 15.7976 26.8307C16.7043 26.9631 17.5762 26.9631 18.4829 26.8307C18.4996 26.8279 18.5163 26.8252 18.5331 26.8224V24.3766C18.5331 21.1788 21.1348 18.577 24.3327 18.577H26.7784C26.7812 18.5603 26.784 18.5436 26.7868 18.5269C26.8523 18.0728 26.8899 17.6243 26.8899 17.1842C26.8899 16.7441 26.8523 16.2956 26.7868 15.8416C26.784 15.8249 26.7812 15.8082 26.7784 15.7915ZM17.1402 18.577C16.3714 18.577 15.7474 17.9531 15.7474 17.1842C15.7474 16.4154 16.3714 15.7915 17.1402 15.7915C17.909 15.7915 18.533 16.4154 18.533 17.1842C18.533 17.9531 17.909 18.577 17.1402 18.577Z" fill="black"/>
<path d="M21.3164 24.3768V25.9799C23.3359 25.0161 24.9697 23.3823 25.9335 21.3628H24.3304C22.6688 21.3628 21.3164 22.7152 21.3164 24.3768Z" fill="black"/>
<path d="M17.1394 0.470703C7.92465 0.470703 0.425781 7.96813 0.425781 17.1843C0.425781 26.4005 7.92465 33.8979 17.1394 33.8979C26.3556 33.8979 33.853 26.4005 33.853 17.1843C33.853 7.96813 26.3556 0.470703 17.1394 0.470703ZM29.5521 18.8487C29.4866 19.332 29.3933 19.8056 29.2749 20.2707C29.2708 20.2861 29.2694 20.3014 29.2652 20.3181L28.9964 21.3627H28.9434C27.6815 24.9143 24.8695 27.7264 21.3178 28.9883V29.0412L20.2732 29.31C20.2565 29.3142 20.2412 29.3155 20.2259 29.3197C19.7607 29.4381 19.2871 29.5315 18.8038 29.5955C18.7509 29.6039 18.698 29.6136 18.6451 29.6206C18.1506 29.6791 17.6505 29.7195 17.1394 29.7195C16.6296 29.7195 16.1296 29.6791 15.6352 29.6206C15.5822 29.6136 15.5293 29.6039 15.4764 29.5956C14.9917 29.5315 14.5182 29.4382 14.0544 29.3198C14.0377 29.3156 14.0223 29.3142 14.007 29.3101L12.961 29.0413V28.9883C9.41072 27.7264 6.59729 24.9144 5.33541 21.3627H5.2839L5.01367 20.3181C5.00949 20.3014 5.00949 20.2861 5.00531 20.2708C4.88695 19.8056 4.79222 19.332 4.72817 18.8488C4.72118 18.7944 4.71008 18.7415 4.70447 18.6886C4.6446 18.1941 4.60419 17.6941 4.60419 17.1843C4.60419 16.6746 4.6446 16.1745 4.70447 15.6801C4.71002 15.6272 4.72118 15.5743 4.72817 15.5199C4.79222 15.0366 4.88695 14.5631 5.00531 14.0979C5.00949 14.0826 5.00949 14.0673 5.01367 14.0506L5.2839 13.006H5.33541C6.59729 9.45428 9.41072 6.64221 12.961 5.38033V5.32738L14.007 5.05859C14.0223 5.05441 14.0376 5.05304 14.0543 5.04886C14.5167 4.93187 14.9875 4.83857 15.468 4.77446C15.5223 4.7661 15.5766 4.75638 15.6309 4.74939C16.1269 4.68952 16.6283 4.64911 17.1394 4.64911C17.652 4.64911 18.1534 4.68952 18.6492 4.74939C18.7035 4.75638 18.7578 4.7661 18.8121 4.77446C19.2927 4.83851 19.7634 4.93187 20.2258 5.04886C20.2412 5.05304 20.2564 5.05441 20.2731 5.05859L21.3177 5.32738V5.38033C24.8694 6.64221 27.6815 9.45428 28.9433 13.0059H28.9963L29.2651 14.0505C29.2693 14.0672 29.2706 14.0826 29.2748 14.0979C29.3932 14.563 29.4865 15.0366 29.5519 15.5199C29.5589 15.5742 29.5687 15.6272 29.5756 15.68C29.6356 16.1745 29.6746 16.6746 29.6746 17.1843C29.6746 17.6941 29.6356 18.1941 29.5757 18.6886C29.5688 18.7415 29.559 18.7944 29.5521 18.8487Z" fill="black"/>
</svg>
