<svg width="35" height="14" viewBox="0 0 35 14" fill="none" xmlns="http://www.w3.org/2000/svg">
<path d="M2.862 11.488C1.47 10.276 0.774 8.68 0.774 6.7C0.774 4.72 1.476 3.13 2.88 1.93C4.284 0.718 6.156 0.112 8.496 0.112C10.764 0.112 12.582 0.562 13.95 1.462C15.318 2.35 16.032 3.532 16.092 5.008H13.338C13.278 4.192 12.828 3.556 11.988 3.1C11.16 2.632 10.02 2.398 8.568 2.398C7.008 2.398 5.772 2.788 4.86 3.568C3.948 4.336 3.492 5.38 3.492 6.7C3.492 8.02 3.942 9.07 4.842 9.85C5.742 10.618 6.96 11.002 8.496 11.002C9.888 11.002 11.046 10.75 11.97 10.246C12.894 9.742 13.434 9.058 13.59 8.194H6.606V6.214H16.29V13H14.13L14.274 10.246H14.112C13.068 12.274 11.178 13.288 8.442 13.288C6.114 13.288 4.254 12.688 2.862 11.488ZM21.4574 13H18.7394V0.399999H21.4214L26.6774 9.058L31.9514 0.399999H34.6154V13H31.9154V4.828L26.9474 13H26.4254L21.4574 4.864V13Z" fill="black"/>
</svg>
