<svg width="89" height="89" viewBox="0 0 89 89" fill="none" xmlns="http://www.w3.org/2000/svg">
<path d="M50.8008 6.64697C50.8008 3.33326 48.1145 0.646973 44.8008 0.646973C41.4871 0.646973 38.8008 3.33326 38.8008 6.64697L50.8008 6.64697ZM40.5581 86.8916C42.9013 89.2347 46.7003 89.2347 49.0434 86.8916L87.2272 48.7078C89.5703 46.3647 89.5703 42.5657 87.2272 40.2225C84.884 37.8794 81.0851 37.8794 78.7419 40.2225L44.8008 74.1636L10.8597 40.2225C8.51651 37.8794 4.71752 37.8794 2.37438 40.2225C0.0312302 42.5657 0.0312304 46.3647 2.37438 48.7078L40.5581 86.8916ZM38.8008 6.64697L38.8008 82.6489L50.8008 82.6489L50.8008 6.64697L38.8008 6.64697Z" fill="#C9A85C"/>
</svg>
