<svg width="189" height="74" viewBox="0 0 189 74" fill="none" xmlns="http://www.w3.org/2000/svg">
<path d="M11.9117 63.6C4.17839 56.8667 0.311719 48 0.311719 37C0.311719 26 4.21172 17.1667 12.0117 10.5C19.8117 3.76666 30.2117 0.399998 43.2117 0.399998C55.8117 0.399998 65.9117 2.9 73.5117 7.9C81.1117 12.8333 85.0784 19.4 85.4117 27.6H70.1117C69.7784 23.0667 67.2784 19.5333 62.6117 17C58.0117 14.4 51.6784 13.1 43.6117 13.1C34.9451 13.1 28.0784 15.2667 23.0117 19.6C17.9451 23.8667 15.4117 29.6667 15.4117 37C15.4117 44.3333 17.9117 50.1667 22.9117 54.5C27.9117 58.7667 34.6784 60.9 43.2117 60.9C50.9451 60.9 57.3784 59.5 62.5117 56.7C67.6451 53.9 70.6451 50.1 71.5117 45.3H32.7117V34.3H86.5117V72H74.5117L75.3117 56.7H74.4117C68.6117 67.9667 58.1117 73.6 42.9117 73.6C29.9784 73.6 19.6451 70.2667 11.9117 63.6ZM115.22 72H100.12V2H115.02L144.22 50.1L173.52 2H188.32V72H173.32V26.6L145.72 72H142.82L115.22 26.8V72Z" fill="black"/>
</svg>
