<svg width="97" height="98" viewBox="0 0 97 98" fill="none" xmlns="http://www.w3.org/2000/svg">
<path d="M96.709 49.3032C96.709 75.992 75.0735 97.6274 48.3848 97.6274C21.696 97.6274 0.0605469 75.992 0.0605469 49.3032C0.0605469 22.6145 21.696 0.979004 48.3848 0.979004C75.0735 0.979004 96.709 22.6145 96.709 49.3032Z" fill="#C9A85C"/>
<path d="M92.1508 49.3034C92.1508 73.4747 72.5562 93.0693 48.385 93.0693C24.2138 93.0693 4.61914 73.4747 4.61914 49.3034C4.61914 25.1322 24.2138 5.5376 48.385 5.5376C72.5562 5.5376 92.1508 25.1322 92.1508 49.3034Z" fill="#C9A85C"/>
<path fill-rule="evenodd" clip-rule="evenodd" d="M91.1323 58.7339C91.1971 58.4387 91.259 58.1423 91.3178 57.8449C91.8643 55.0824 92.1508 52.2264 92.1508 49.3034C92.1508 46.3805 91.8643 43.5245 91.3178 40.762C91.259 40.4646 91.1971 40.1682 91.1323 39.873C91.0672 39.5768 90.9992 39.2818 90.9282 38.9879C89.9652 39.199 89.3438 40.1429 89.536 41.1145C90.0596 43.7616 90.3345 46.4995 90.3345 49.3034C90.3345 52.1074 90.0596 54.8453 89.536 57.4924C89.3438 58.464 89.9652 59.4079 90.9282 59.6189C90.9992 59.3251 91.0672 59.03 91.1323 58.7339ZM85.7581 72.0905C84.9278 71.5587 83.8209 71.7868 83.2698 72.61C80.2067 77.1854 76.2669 81.1251 71.6915 84.1883C70.8684 84.7394 70.6403 85.8463 71.172 86.6766C71.4305 86.5186 71.6872 86.3581 71.9421 86.195C72.1972 86.0318 72.4505 85.866 72.702 85.6976C77.4747 82.5023 81.5839 78.3932 84.7792 73.6204C84.9475 73.369 85.1133 73.1157 85.2765 72.8606C85.4397 72.6057 85.6002 72.349 85.7581 72.0905ZM58.7005 91.8466C58.4894 90.8837 57.5456 90.2622 56.5739 90.4544C53.9269 90.9781 51.1889 91.2529 48.385 91.2529C45.581 91.2529 42.8431 90.9781 40.1961 90.4544C39.2244 90.2622 38.2806 90.8837 38.0695 91.8466C38.3634 91.9176 38.6584 91.9857 38.9545 92.0507C39.2498 92.1156 39.5461 92.1774 39.8436 92.2362C42.6061 92.7828 45.4621 93.0693 48.385 93.0693C51.3079 93.0693 54.1639 92.7828 56.9264 92.2362C57.2239 92.1774 57.5202 92.1156 57.8154 92.0507C58.1116 91.9857 58.4066 91.9176 58.7005 91.8466ZM25.5979 86.6766C26.1297 85.8463 25.9016 84.7394 25.0785 84.1883C20.503 81.1251 16.5633 77.1854 13.5001 72.61C12.9491 71.7868 11.8421 71.5587 11.0119 72.0905C11.1698 72.349 11.3303 72.6057 11.4934 72.8606C11.6567 73.1157 11.8225 73.369 11.9908 73.6204C15.1861 78.3932 19.2953 82.5023 24.068 85.6976C24.3195 85.866 24.5728 86.0318 24.8279 86.195C25.0828 86.3581 25.3395 86.5187 25.5979 86.6766ZM5.84179 59.619C6.80477 59.4079 7.42621 58.464 7.23399 57.4924C6.71033 54.8453 6.43548 52.1074 6.43548 49.3034C6.43548 46.4995 6.71033 43.7616 7.23399 41.1145C7.42621 40.1429 6.80477 39.199 5.84179 38.9879C5.77079 39.2818 5.70275 39.5768 5.63771 39.873C5.57288 40.1682 5.51102 40.4646 5.45218 40.762C4.90567 43.5245 4.61914 46.3805 4.61914 49.3034C4.61914 52.2264 4.90567 55.0824 5.45218 57.8449C5.51102 58.1423 5.57288 58.4387 5.63772 58.7339C5.70275 59.03 5.77079 59.3251 5.84179 59.619ZM11.0118 26.5164C11.8421 27.0481 12.9491 26.82 13.5001 25.9969C16.5633 21.4215 20.503 17.4818 25.0785 14.4186C25.9016 13.8675 26.1297 12.7606 25.5979 11.9303C25.3395 12.0882 25.0828 12.2488 24.8279 12.4119C24.5728 12.5751 24.3194 12.7409 24.068 12.9093C19.2953 16.1045 15.1861 20.2137 11.9908 24.9865C11.8225 25.2379 11.6567 25.4912 11.4934 25.7463C11.3303 26.0012 11.1698 26.2579 11.0118 26.5164ZM38.0695 6.76025C38.2806 7.72323 39.2244 8.34467 40.1961 8.15245C42.8431 7.62878 45.581 7.35394 48.385 7.35394C51.1889 7.35394 53.9269 7.62878 56.5739 8.15245C57.5456 8.34467 58.4894 7.72323 58.7005 6.76025C58.4066 6.68925 58.1116 6.62121 57.8154 6.55617C57.5202 6.49134 57.2238 6.42948 56.9264 6.37064C54.1639 5.82413 51.3079 5.5376 48.385 5.5376C45.4621 5.5376 42.6061 5.82413 39.8436 6.37064C39.5461 6.42948 39.2498 6.49134 38.9545 6.55617C38.6584 6.62121 38.3634 6.68925 38.0695 6.76025ZM71.172 11.9303C70.6403 12.7606 70.8684 13.8675 71.6915 14.4186C76.2669 17.4818 80.2067 21.4215 83.2698 25.9969C83.8209 26.82 84.9278 27.0481 85.7581 26.5164C85.6002 26.2579 85.4397 26.0012 85.2765 25.7463C85.1133 25.4912 84.9475 25.2379 84.7792 24.9865C81.5839 20.2137 77.4747 16.1045 72.702 12.9093C72.4505 12.7409 72.1972 12.5751 71.9421 12.4119C71.6872 12.2488 71.4305 12.0882 71.172 11.9303Z" fill="white"/>
<path fill-rule="evenodd" clip-rule="evenodd" d="M66.6284 30.3047C67.1148 30.7912 67.2847 31.5108 67.0672 32.1635L52.9661 74.4665C52.7242 75.192 52.0539 75.6883 51.2895 75.7079C50.525 75.7275 49.8301 75.2662 49.5515 74.554L41.9092 55.0239L22.3791 47.3816C21.6669 47.1029 21.2056 46.4081 21.2252 45.6436C21.2448 44.8791 21.7411 44.2088 22.4666 43.967L64.7696 29.866C65.4223 29.6484 66.1419 29.8183 66.6284 30.3047ZM45.4354 54.0664L51.1063 68.5584L61.1878 38.3141L45.4354 54.0664ZM58.6191 35.7453L28.3747 45.8268L42.8667 51.4977L58.6191 35.7453Z" fill="white"/>
</svg>
